HIERARCHY
ROOT Hips
{
	OFFSET 0.000000 0.000000 0.000000 
	CHANNELS 6 Xposition Yposition Zposition Zrotation Yrotation Xrotation
	JOINT LeftUpLeg
	{
		OFFSET 1.363060 -1.794630 0.839290 
		CHANNELS 3 Zrotation Yrotation Xrotation
		JOINT LeftLeg
		{
			OFFSET 2.448110 -6.726130 0.000000 
			CHANNELS 3 Zrotation Yrotation Xrotation
			JOINT LeftFoot
			{
				OFFSET 2.562200 -7.039590 0.000000 
				CHANNELS 3 Zrotation Yrotation Xrotation
				JOINT LeftToeBase
				{
					OFFSET 0.157640 -0.433110 2.322550 
					CHANNELS 3 Zrotation Yrotation Xrotation
					End Site
					{
						OFFSET 0.000000 0.000000 0.000000 
					}
				}
			}
		}
	}
	JOINT RightUpLeg
	{
		OFFSET -1.305520 -1.794630 0.839290 
		CHANNELS 3 Zrotation Yrotation Xrotation
		JOINT RightLeg
		{
			OFFSET -2.542530 -6.985550 0.000000 
			CHANNELS 3 Zrotation Yrotation Xrotation
			JOINT RightFoot
			{
				OFFSET -2.568260 -7.056230 0.000000 
				CHANNELS 3 Zrotation Yrotation Xrotation
				JOINT RightToeBase
				{
					OFFSET -0.164730 -0.452590 2.363150 
					CHANNELS 3 Zrotation Yrotation Xrotation
					End Site
					{
						OFFSET 0.000000 0.000000 0.000000 
					}
				}
			}
		}
	}
	JOINT Spine
	{
		OFFSET 0.028270 2.035590 -0.193380 
		CHANNELS 3 Zrotation Yrotation Xrotation
		JOINT Spine1
		{
			OFFSET 0.056720 2.048850 -0.042750 
			CHANNELS 3 Zrotation Yrotation Xrotation
			JOINT Neck1
			{
				OFFSET -0.054170 1.746240 0.172020 
				CHANNELS 3 Zrotation Yrotation Xrotation
				JOINT Head
				{
					OFFSET 0.104070 1.761360 -0.123970 
					CHANNELS 3 Zrotation Yrotation Xrotation
					End Site
					{
						OFFSET 0.000000 0.000000 0.000000 
					}
				}
			}
			JOINT LeftArm
			{
				OFFSET 3.362410 1.200890 -0.311210 
				CHANNELS 3 Zrotation Yrotation Xrotation
				JOINT LeftForeArm
				{
					OFFSET 4.983000 -0.000000 -0.000000 
					CHANNELS 3 Zrotation Yrotation Xrotation
					JOINT LeftHand
					{
						OFFSET 3.483560 -0.000000 -0.000000 
						CHANNELS 3 Zrotation Yrotation Xrotation
						JOINT LeftHandIndex1
						{
							OFFSET 0.715260 -0.000000 -0.000000 
							CHANNELS 3 Zrotation Yrotation Xrotation
							End Site
							{
								OFFSET 0.000000 0.000000 0.000000 
							}
						}
					}
				}
			}
			JOINT RightArm
			{
				OFFSET -3.136600 1.374050 -0.404650 
				CHANNELS 3 Zrotation Yrotation Xrotation
				JOINT RightForeArm
				{
					OFFSET -5.241900 -0.000000 -0.000000 
					CHANNELS 3 Zrotation Yrotation Xrotation
					JOINT RightHand
					{
						OFFSET -3.444170 -0.000000 -0.000000 
						CHANNELS 3 Zrotation Yrotation Xrotation
						JOINT RightHandIndex1
						{
							OFFSET -0.622530 -0.000000 -0.000000 
							CHANNELS 3 Zrotation Yrotation Xrotation
							End Site
							{
								OFFSET 0.000000 0.000000 0.000000 
							}
						}
					}
				}
			}
		}
	}
}
MOTION
Frames: 7
Frame Time: 0.041667
0.343408 13.942748 -6.302143 8.960283 -21.126702 -0.217567 -1.132839 1.732512 -35.946925 17.527807 19.978313 79.893652 5.277272 -18.176330 -17.293600 5.025700 -13.412600 -40.933400 -17.336270 9.737252 -48.836514 -15.031681 -20.592501 73.055955 -3.003531 16.883843 -4.367438 -2.367600 9.593100 -27.668700 2.516708 0.709103 0.965937 4.928441 0.357217 -4.758480 1.191455 3.252765 5.356348 2.187500 1.003000 7.888400 -73.691418 -32.587196 18.568761 147.841786 -42.751896 -108.537672 0.730888 -0.823396 -0.787155 -7.125000 0.000000 0.000000 64.468790 18.402160 14.912985 -147.622991 37.777925 -110.102971 1.158488 -0.269919 -13.772616 7.125000 0.000000 0.000000 
0.323105 14.039238 -6.257743 9.153452 -21.656018 -0.331691 -1.497224 2.126738 -35.358227 17.162267 19.879734 78.972903 5.177412 -17.905810 -16.536318 4.934300 -13.309500 -40.538200 -17.238451 10.104649 -48.318346 -14.683249 -20.490069 72.083265 -2.996966 16.838179 -3.911060 -2.238900 9.347000 -26.886800 2.653945 0.654810 0.881712 5.205051 0.329564 -4.939314 1.025220 3.588748 5.609503 2.158000 1.131100 7.952300 -73.794391 -31.690560 18.135689 148.199243 -42.481953 -108.747029 0.727368 -0.811430 -0.883613 -7.125000 0.000000 0.000000 64.266078 17.064195 13.840585 -147.365372 38.101364 -109.946472 1.146825 -0.266208 -14.441346 7.125000 0.000000 0.000000 
0.302700 14.140753 -6.213650 9.333626 -22.186509 -0.367557 -1.869619 2.529265 -34.828493 16.788378 19.776585 78.030653 5.074118 -17.528141 -15.829798 4.842200 -13.203900 -40.136500 -17.145829 10.486448 -47.822872 -14.307082 -20.376416 71.034765 -2.986438 16.759099 -3.403483 -2.099000 9.069400 -26.012700 2.739723 0.624118 0.813874 5.316449 0.317329 -5.022147 0.764220 3.847722 5.848799 2.050200 1.225700 8.046700 -73.763899 -30.910153 17.776620 148.499575 -42.251538 -108.922554 0.730635 -0.803849 -0.794841 -7.125000 0.000000 0.000000 64.240245 15.686320 12.668003 -147.063466 38.463471 -109.762082 1.143098 -0.260691 -15.210464 7.125000 0.000000 0.000000 
0.280551 14.242474 -6.174377 9.524706 -22.716240 -0.438600 -2.253392 2.980012 -34.294360 16.395742 19.664551 77.034986 4.966870 -17.068981 -15.147348 4.871400 -13.237500 -40.264200 -17.065557 10.946009 -47.276169 -13.909689 -20.249516 69.923951 -2.974754 16.605201 -2.899450 -1.963700 8.790100 -25.140900 2.801025 0.592405 0.774333 5.387113 0.301983 -5.052744 0.497067 4.072492 5.832775 1.946700 1.314400 8.014100 -73.657390 -30.299679 17.415680 148.759313 -42.045321 -109.076883 0.737573 -0.799328 -0.588076 -7.125000 0.000000 0.000000 64.247030 14.299754 11.449025 -146.747970 38.833803 -109.572613 1.137676 -0.246517 -16.087106 7.125000 0.000000 0.000000 
0.258710 14.354140 -6.134797 9.687925 -23.168942 -0.515230 -2.609364 3.316972 -33.715659 15.960976 19.536779 75.963686 4.816272 -17.146979 -13.692243 4.698100 -13.035600 -39.501700 -16.937929 11.346317 -46.605937 -13.487072 -20.100256 68.729171 -2.970242 16.415832 -2.426862 -1.791500 8.417500 -23.989500 2.852533 0.491905 0.733054 5.435222 0.255985 -5.066590 0.150187 4.385609 5.791499 1.821600 1.439700 7.955000 -73.546113 -29.634315 16.938224 149.054204 -41.807244 -109.254645 0.739917 -0.795645 -0.470536 -7.125000 0.000000 0.000000 64.320095 12.938842 10.265712 -146.374379 39.251583 -109.349959 1.124724 -0.236573 -16.926455 7.125000 0.000000 0.000000 
0.237074 14.471959 -6.089986 9.994036 -23.689395 -0.530564 -3.139422 3.727468 -33.232700 15.521124 19.400346 74.903552 4.661773 -17.069995 -12.312835 4.449500 -12.735600 -38.386800 -16.967111 11.718203 -46.017741 -13.052405 -19.944720 67.482123 -2.968204 16.251300 -1.943313 -1.697700 8.205800 -23.340800 2.892442 0.440129 0.723160 5.558978 0.228598 -4.865818 -0.213072 4.698577 5.855914 1.693900 1.556400 7.959200 -73.569137 -29.096448 16.544489 149.357623 -41.557761 -109.439977 0.732608 -0.796825 -0.249844 -7.125000 0.000000 0.000000 64.368287 11.727263 8.891913 -145.863530 39.791412 -109.048163 1.098110 -0.236747 -17.725651 7.125000 0.000000 0.000000 
0.214207 14.588548 -6.044971 10.291099 -24.220537 -0.501982 -3.704905 4.259421 -32.826969 15.084729 19.259224 73.808405 4.533786 -16.429913 -11.587409 4.401200 -12.675900 -38.167200 -17.019387 12.155348 -45.459223 -12.602025 -19.775636 66.189469 -2.958519 16.007598 -1.423296 -1.639100 8.070100 -22.927200 2.902135 0.405900 0.672569 5.611877 0.215761 -4.751049 -0.437055 4.956110 5.950587 1.625300 1.655300 7.967700 -73.563918 -28.521125 16.224125 149.712277 -41.257511 -109.649978 0.721677 -0.788757 -0.124737 -7.125000 0.000000 0.000000 64.475400 10.402996 7.457730 -145.198862 40.458480 -108.658518 1.049921 -0.247824 -18.432484 7.125000 0.000000 0.000000 
